# xmcd CD database file
#
# Track frame offsets:
#	150
#	22811
#	53559
#	75755
#	92813
#	109070
#	134229
#	158413
#	182583
#	207209
#
# Disc length: 3084 seconds
#
# Revision: 0
# Processed by: cddbd v1.5.1PL2 Copyright (c) Steve Scherf et al.
# Submitted via: CDex 1.51
#
DISCID=6f0c0a0a
DTITLE=Terje Gewelt - Duality
DYEAR=2002
DGENRE=Jazz
TTITLE0=01 The water is wide
TTITLE1=02 Lonely woman
TTITLE2=03 Slow dance
TTITLE3=04 Centra Park West
TTITLE4=05 The gentleman
TTITLE5=06 Hope
TTITLE6=07 Wilder
TTITLE7=08 Muddy skies
TTITLE8=09 Touch her soft lips and part
TTITLE9=10 Westwood
EXTD=YEAR: 2002
EXTT0=
EXTT1=
EXTT2=
EXTT3=
EXTT4=
EXTT5=
EXTT6=
EXTT7=
EXTT8=
EXTT9=
PLAYORDER=
